<svg width="64" height="42" viewBox="0 0 64 42" fill="none" xmlns="http://www.w3.org/2000/svg">
<g clip-path="url(#clip0_2029_2441)">
<path d="M30.6535 30.9522C24.4502 27.2602 16.625 21.9035 16.625 12.435V2.44004C19.4848 1.35874 23.9096 0 30.6535 0C37.3974 0 42.1565 1.47256 44.6819 2.44004V12.435C44.6819 21.9817 36.5579 27.4807 30.6535 30.9522Z" fill="#B7B7B7"/>
<path d="M34.8837 18.0062C34.8837 17.7928 35.0544 17.4656 35.0544 17.1668C35.0544 16.8182 34.6276 16.7044 34.2933 16.6617C33.589 16.5621 33.3613 16.5977 33.3613 16.4412C33.3613 16.3345 33.4538 16.2207 33.5819 16.0357C33.7739 15.7654 34.2221 15.6658 34.4569 15.6302C34.7699 15.5875 35.1185 15.5448 35.5382 15.5448C36.0077 15.5448 36.4061 15.616 36.5839 15.6444C37.0107 15.7156 37.0819 15.9005 37.0819 16.0997V16.2989C37.0819 16.5052 36.9183 16.6048 36.6124 16.6688C36.5412 16.6831 36.4345 16.7044 36.3847 16.7115C36.1642 16.7542 35.901 16.7969 35.8014 17.0743C35.5951 17.6648 35.2394 18.1272 34.9762 18.1129C34.9264 18.1129 34.8766 18.0774 34.8766 17.992M35.5026 8.50927C35.5026 8.50927 35.3888 8.45948 35.3888 8.37411C35.3888 8.2674 35.4599 8.1607 35.6164 7.96151C35.965 7.492 36.4487 6.91578 36.6266 6.91578C36.712 6.91578 36.7689 6.97269 36.8756 7.17899C36.9396 7.29992 36.9965 7.49911 36.9965 7.69118C36.9965 8.3172 36.7831 8.75826 36.4487 9.25622C36.278 9.09261 35.9721 8.78671 35.5097 8.5235M25.1947 9.67594C25.3512 9.67594 25.4721 9.56923 25.714 9.30602C26.2475 8.71557 26.7597 8.63732 26.7597 8.38834C26.7597 8.27452 26.6886 8.16781 26.6103 8.04688C26.0412 7.15765 25.7994 6.68102 25.4579 6.03366C25.337 5.79891 25.1733 5.6424 25.0524 5.6424C24.8532 5.6424 24.6469 5.87005 24.526 6.06923C24.3552 6.34667 24.1845 6.65968 24.1845 6.94423C24.1845 7.37106 24.2912 8.15358 24.4691 8.65866C24.6611 9.19931 24.9386 9.67594 25.1804 9.67594M31.5971 11.7247C31.5971 11.3619 31.1845 10.8213 30.466 10.8213C29.8258 10.8213 29.3349 11.305 29.2069 11.682C29.3634 11.9808 29.5057 12.2938 30.1246 12.4788C30.2028 12.5001 30.2882 12.5072 30.2882 12.5713C30.2882 12.6709 30.1815 12.7207 29.9681 12.7207C29.2709 12.7207 28.8583 12.4361 28.6733 12.1942C28.4955 12.2227 28.2821 12.2867 28.026 12.3009C27.8126 12.3081 27.713 12.1658 27.713 11.9808C27.713 11.8599 27.7485 11.7247 27.8197 11.5753C27.8624 11.49 27.905 11.4046 27.9335 11.3477C28.0402 11.1343 28.2038 10.6648 28.8441 10.302C28.9152 10.2593 29.1073 10.1455 29.2069 10.0885C29.5697 9.87513 29.84 9.82533 30.2668 9.82533H30.5798C31.092 9.82533 31.3552 9.96761 31.5758 10.1597C32.0382 10.5438 32.2872 10.7572 32.2872 11.0418C32.2872 11.3619 32.2729 11.6038 32.0168 11.9381C31.7963 12.2227 31.4762 12.4148 31.2699 12.4148C31.213 12.4148 31.1987 12.3863 31.1987 12.3507C31.1987 12.3081 31.2485 12.2867 31.2983 12.244C31.4691 12.1089 31.5402 11.867 31.5971 11.7318M34.6774 21.556C34.5565 21.5845 34.3217 21.6414 33.2689 21.6414C31.6754 21.6414 31.405 21.2501 31.405 20.9371C31.405 20.4178 33.6886 20.055 34.5849 20.055C35.4813 20.055 35.8298 20.3324 35.8298 20.5459C35.8298 20.7877 35.4386 21.3711 34.6774 21.556ZM25.5006 26.2227C27.1581 27.5174 28.9294 28.6556 30.6652 29.6942C30.6794 28.1363 30.6296 27.2186 31.6896 26.1089C32.1164 25.6607 32.5575 25.2054 32.9559 24.7928C33.2546 24.4798 33.4965 24.2522 33.6388 24.2522C33.7384 24.2522 33.7882 24.302 33.7882 24.4371C33.7882 24.5723 33.8522 25.0916 34.1652 25.7034C34.5565 26.4646 35.1398 26.5642 35.3319 26.6068C39.8491 23.2064 43.6337 18.7532 43.6337 12.4148V3.18102C42.5168 2.80399 37.9426 1.04688 30.6723 1.04688C23.402 1.04688 18.8278 2.80399 17.7109 3.18102V12.4148C17.7109 15.1963 18.4437 17.6221 19.6459 19.7491C19.7668 18.4686 20.6347 17.8568 20.6347 16.5977C20.6347 15.7156 20.3857 15.1607 20.3857 14.428C20.3857 13.0977 22.1855 10.3589 23.1174 9.242C23.1459 9.21354 23.2028 9.12818 23.2811 9.12818C23.3451 9.12818 23.402 9.17797 23.4376 9.23488C23.53 9.37716 23.5727 9.45541 23.6723 9.45541C23.7719 9.45541 23.8146 9.3985 23.8146 9.30602C23.8146 9.07127 23.5443 8.68712 23.5443 7.17188C23.5443 6.11192 23.7933 5.89139 24.4477 5.24403C24.5687 5.12309 24.9386 4.77452 25.2872 4.77452C25.6784 4.77452 25.8705 5.00216 26.1124 5.25114C26.5178 5.66374 27.087 6.39647 27.1794 6.51029C27.2079 6.54586 27.2292 6.57431 27.2861 6.57431C27.4711 6.57431 27.6347 6.5174 28.4457 6.5174C29.9325 6.5174 32.1662 6.75216 33.3187 7.12919C33.9091 7.32127 34.03 7.45643 34.1937 7.45643C34.2719 7.45643 34.279 7.40663 34.279 7.36395C34.279 7.29281 34.1225 7.17188 34.1225 7.06517C34.1225 6.99403 34.1794 6.95135 34.2292 6.91578C35.0829 6.45338 35.8156 6.1048 36.4914 6.1048C36.8827 6.1048 37.0748 6.43915 37.2384 6.7735C37.3664 7.03671 37.5016 7.38529 37.5016 7.74098C37.5016 8.65155 37.153 9.19931 36.8756 9.59057C37.0107 9.72574 37.1957 9.93204 37.3095 10.0672C37.5158 10.3091 37.7577 10.6292 37.7577 10.9564C37.7577 11.0987 37.6865 11.3192 37.651 11.4971C37.6367 11.5753 37.5656 11.7318 37.4233 11.7318C37.3024 11.7318 37.2668 11.5967 37.2597 11.4757C37.2597 11.4544 37.2597 11.3975 37.2597 11.3833C37.2597 11.12 37.1886 10.7644 36.9467 10.5225C36.6693 10.2379 36.4132 10.0316 36.0859 10.0316H35.9721C35.4386 10.0316 35.2038 10.2664 35.0544 10.4087C34.8979 10.5652 34.7699 10.7715 34.7699 11.0489C34.7699 11.2125 34.8766 11.3975 35.026 11.6892C35.1113 11.8599 35.3319 12.2654 35.4528 12.4788C35.5595 12.6637 35.6947 12.7278 35.8441 12.7278C36.214 12.7278 36.5341 12.678 36.5341 12.5642C36.5341 12.5357 36.5199 12.5072 36.4701 12.5072C36.4487 12.5072 36.3989 12.5072 36.3491 12.5072C35.8654 12.5072 35.6093 11.8955 35.3674 11.3335C35.5524 11.1556 35.7587 10.9707 36.1357 10.9707C36.6195 10.9707 36.9325 11.2908 36.9325 11.7105C36.9325 11.9168 36.8685 12.0946 36.8329 12.1729C36.8115 12.2156 36.8044 12.2369 36.8044 12.2583C36.8044 12.3223 36.8898 12.3365 37.0178 12.365C37.0605 12.3792 37.153 12.3934 37.2099 12.4148C37.3522 12.4574 37.5016 12.5784 37.5656 12.7491C37.6083 12.8629 37.7079 13.119 37.7292 13.1831C37.8075 13.4178 37.9355 13.7664 37.9355 14.179C37.9355 14.5916 37.9071 14.7268 37.7933 15.1607C37.6439 15.7085 37.5798 15.9148 37.5585 16.2207C37.6083 16.3131 37.6154 16.3416 37.6368 16.3985C37.7221 16.5692 37.8288 16.8894 37.8288 17.2379V17.5225C37.8288 18.0702 37.6083 18.4971 37.3735 18.8172C37.1886 19.0662 36.9254 19.4219 36.7689 19.6139C36.6693 19.7349 36.5412 19.8203 36.3918 19.8203C36.3207 19.8203 36.2353 19.7989 36.1571 19.7776C36.0646 19.7562 35.8654 19.7064 35.7872 19.6851C35.467 19.6068 35.3461 19.3934 35.2394 19.1089C35.2252 19.0662 35.1754 18.9452 35.1611 18.9097C35.0829 18.7105 35.0402 18.5824 34.9193 18.5824C34.8268 18.5824 34.7414 18.6394 34.6489 18.7816C34.3288 19.2654 34.151 19.4432 33.5819 19.5855C33.3827 19.6353 32.9772 19.7207 32.7567 19.7705C32.4152 19.8487 31.8105 20.0052 31.4691 20.0052C31.3979 20.0052 31.3197 20.0052 31.2414 19.991C30.779 19.927 30.4447 19.8914 29.8613 19.2013C29.0646 18.2481 29.1428 18.1129 29.1002 16.8253C29.1002 16.6831 29.0504 16.5052 28.901 16.5052C28.7658 16.5052 28.7089 16.7755 28.6591 17.1668C28.6022 17.6221 28.4955 18.0916 28.275 18.0916C28.1185 18.0916 28.0118 18.0703 27.7699 17.992C27.4782 17.8995 26.7526 17.6505 26.3756 17.5296C25.8563 17.3589 25.3654 17.2237 25.1591 16.7613C25.0666 16.5479 24.8888 16.1424 24.8034 15.9361C24.7394 15.7867 24.6967 15.7156 24.5971 15.7156C24.462 15.7156 24.4264 15.8792 24.4122 16.0072C24.3908 16.1566 24.3552 16.491 24.341 16.7044C24.2628 17.6007 24.0849 17.9849 23.7079 18.4829C23.5372 18.7105 23.3664 18.9452 23.1744 19.2013C22.776 19.7278 22.5341 20.2684 22.5483 21.2928C22.5483 21.3568 22.5483 21.741 22.5483 21.9117C22.5839 23.4341 22.9681 24.181 25.5361 26.2227" fill="#605C5C"/>
<path d="M37.536 12.7776C37.5786 12.8914 37.6711 13.1475 37.6925 13.2115C37.7707 13.4463 37.8988 13.7948 37.8988 14.2074C37.8988 14.62 37.8703 14.7552 37.7565 15.1892C37.6071 15.7369 37.5431 15.9432 37.5217 16.2491C37.479 16.1637 36.7036 14.8192 36.6396 14.7125C36.5827 14.6058 36.5329 14.4991 36.5329 14.3711C36.5329 14.2359 36.5898 14.1505 36.7606 14.0438C36.8601 13.9798 36.9882 13.9087 37.0736 13.866C37.479 13.6597 37.5715 13.4036 37.5715 13.1333C37.5715 13.0194 37.5573 12.8985 37.536 12.7847M34.1427 14.9259C34.1853 15.0326 34.2209 15.1536 34.2209 15.2461C34.2209 15.4452 34.1711 15.5093 34.0573 15.6302C33.9933 15.6871 33.915 15.7511 33.851 15.8152C33.7372 15.8721 33.6376 15.9503 33.5736 16.0428C33.4455 16.2278 33.353 16.3416 33.353 16.4483C33.353 16.4839 33.3673 16.5052 33.3886 16.5265C33.2321 16.4127 33.1752 16.2349 33.1752 16.0784C33.1752 15.9361 33.2179 15.865 33.2179 15.7298C33.2179 15.616 33.1894 15.5093 33.1681 15.4452C32.9547 14.7196 32.5847 13.8589 32.3642 13.2755C32.1366 12.678 31.9587 12.3507 31.6955 12.3507C31.5532 12.3507 31.4252 12.4219 31.2758 12.4219C31.4821 12.4219 31.8022 12.2298 32.0227 11.9452C32.2788 11.6109 32.2931 11.369 32.2931 11.0489C32.2931 10.9137 32.2362 10.7928 32.1295 10.6719C32.4567 11.0062 32.6701 11.4259 32.8906 11.9026C33.3744 12.9341 33.7941 14.0581 34.1498 14.9402M22.5045 21.9117C22.5045 21.7339 22.5045 21.3568 22.5045 21.2857C22.4902 20.2613 22.7321 19.7207 23.1305 19.1942C23.3225 18.9381 23.4862 18.7034 23.664 18.4757C24.041 17.9778 24.226 17.5936 24.3043 16.6973C24.3256 16.4839 24.3612 16.1495 24.3754 16.0001C24.3896 15.8721 24.4252 15.7085 24.5603 15.7085C24.6599 15.7085 24.7026 15.7867 24.7666 15.929C24.852 16.1353 25.0299 16.5408 25.1223 16.7542C25.3215 17.2166 25.8195 17.3518 26.3388 17.5225C26.7158 17.6505 27.4414 17.8924 27.7331 17.9849C27.975 18.0631 28.0817 18.0845 28.2382 18.0845C28.4587 18.0845 28.5654 17.615 28.6223 17.1597C28.6721 16.7755 28.729 16.4981 28.8642 16.4981C29.0136 16.4981 29.0634 16.6759 29.0634 16.8182C29.1132 18.1058 29.0278 18.241 29.8246 19.1942C30.4079 19.8914 30.7351 19.9198 31.2047 19.9839C31.0339 19.9341 30.8063 19.7278 30.8063 19.3081V18.8457C30.8063 18.618 30.8347 18.3761 30.9486 18.1129C31.0055 17.9849 31.0695 17.7572 31.1264 17.6221C31.226 17.3873 31.1762 17.3233 31.1762 17.1597C31.1762 16.9818 31.1193 16.8111 30.977 16.3914C30.9059 16.178 30.8063 15.8579 30.7138 15.6018C30.4221 14.7979 30.3083 14.6058 29.3408 14.4778C29.0278 14.4351 27.6762 14.243 27.3916 14.2074C26.3103 14.0509 25.4567 14.0011 25.0156 13.2755C24.4892 12.4076 24.539 11.3477 24.0339 11.3477C23.7921 11.3477 23.664 11.618 23.664 12.0093C23.664 12.4219 23.8205 13.0906 23.8205 14.2501C23.8205 15.2532 23.728 15.5377 23.1447 16.2776C22.9953 16.4696 22.789 16.7542 22.661 16.9178C22.227 17.4656 22.0349 17.7715 22.0563 18.4117C22.1274 20.0621 22.3835 21.2715 22.5045 21.9046M33.5593 25.7887C33.5949 25.3833 33.7727 24.7146 33.7727 24.4442C33.7727 24.3091 33.7301 24.2522 33.6234 24.2522C33.4811 24.2522 33.2392 24.4869 32.9404 24.7928C32.5421 25.2054 32.101 25.6607 31.6742 26.1089C30.6213 27.2115 30.6711 28.1292 30.6498 29.6942C31.8236 28.99 32.8977 28.307 33.6874 27.7664C33.5664 27.119 33.474 26.6495 33.5522 25.7959" fill="white"/>
<path d="M0.846545 34.5278H0V33.2758H3.94106C6.01118 33.2758 7.09959 34.3642 7.09959 35.915C7.09959 37.7575 5.64837 38.5542 3.94106 38.5542H2.63923V40.6173H3.48577V41.8693H0V40.6173H0.846545V34.5278ZM3.7561 37.3022C4.65244 37.3022 5.23577 36.79 5.23577 35.915C5.23577 35.1254 4.72358 34.5278 3.72764 34.5278H2.63211V37.3022H3.7561ZM9.29065 39.0451C9.34045 40.0624 10.123 40.6884 11.3252 40.6884C12.3852 40.6884 13.0325 40.3967 13.31 40.2829V41.6061C13.0467 41.7128 12.3354 42.0116 10.9411 42.0116C8.46545 42.0116 7.41972 40.4679 7.41972 38.6823C7.41972 36.6833 8.63618 35.2961 10.6494 35.2961C12.8618 35.2961 13.751 36.9679 13.751 39.038H9.28354L9.29065 39.0451ZM11.8943 37.8642C11.8943 36.9821 11.3892 36.477 10.5925 36.477C9.79573 36.477 9.35468 36.9892 9.27642 37.8642H11.8872H11.8943ZM56.8537 39.0451C56.9035 40.0624 57.686 40.6884 58.8882 40.6884C59.9482 40.6884 60.5955 40.3967 60.873 40.2829V41.6061C60.6098 41.7128 59.8984 42.0116 58.5041 42.0116C56.0285 42.0116 54.9827 40.4679 54.9827 38.6823C54.9827 36.6833 56.1992 35.2961 58.2124 35.2961C60.4177 35.2961 61.314 36.9679 61.314 39.038H56.8465L56.8537 39.0451ZM59.4573 37.8642C59.4573 36.9821 58.9522 36.477 58.1555 36.477C57.3587 36.477 56.9177 36.9892 56.8394 37.8642H59.4502H59.4573ZM15.3516 36.6975H14.5193V35.4455H16.874L16.9238 36.2849H16.9522C17.0661 36.1071 17.628 35.2961 18.9228 35.2961C20.5518 35.2961 21.4055 36.4414 21.4055 37.8571V40.6101H22.1453V41.8622H18.9939V40.6101H19.6911V38.1559C19.6911 37.2595 19.1931 36.7758 18.3821 36.7758C17.6494 36.7758 17.0803 37.1884 17.0803 38.1559V40.6101H17.8201V41.8622H14.6687V40.6101H15.3659V36.6975H15.3516ZM23.7175 36.6975H22.8852V35.4455H25.2398L25.2896 36.2849H25.311C25.4248 36.1071 25.9868 35.2961 27.2815 35.2961C28.9106 35.2961 29.7642 36.4414 29.7642 37.8571V40.6101H30.5041V41.8622H27.3526V40.6101H28.0498V38.1559C28.0498 37.2595 27.5518 36.7758 26.7409 36.7758C26.0081 36.7758 25.439 37.1884 25.439 38.1559V40.6101H26.1789V41.8622H23.0274V40.6101H23.7246V36.6975H23.7175ZM51.1057 34.0725H52.8272V35.4455H54.5417V36.6975H52.8272V39.5573C52.8272 40.4181 53.126 40.6884 53.8374 40.6884C54.1006 40.6884 54.4705 40.6173 54.5986 40.5888V41.8053C54.4563 41.8479 53.8374 42.0116 53.1829 42.0116C51.9167 42.0116 51.0986 41.3286 51.0986 40.2046V36.6975H50.2307V35.4455H51.0986V34.0725H51.1057ZM39.5244 34.0725H41.2459V35.4455H42.9604V36.6975H41.2459V39.5573C41.2459 40.4181 41.5447 40.6884 42.2561 40.6884C42.5193 40.6884 42.8892 40.6173 43.0244 40.5888V41.8053C42.8821 41.8479 42.2561 42.0116 41.6087 42.0116C40.3425 42.0116 39.5244 41.3286 39.5244 40.2046V36.6975H38.6565V35.4455H39.5244V34.0725ZM47.6839 37.7788C47.6839 36.8896 47.25 36.5481 46.3892 36.5481C45.8344 36.5481 45.436 36.6904 45.3222 36.7331V37.5939H43.9278V35.9648C44.1555 35.8368 45.187 35.3032 46.3608 35.3032C48.1463 35.3032 49.2988 36.0288 49.2988 37.8286V40.6173H49.9604V41.8693H47.8831L47.8333 40.9943H47.812C47.6839 41.1721 47.2144 42.0187 45.7703 42.0187C44.3262 42.0187 43.622 41.1579 43.622 40.1549C43.622 38.9313 44.561 38.0918 46.9156 38.0918H47.6839V37.7859V37.7788ZM47.1789 39.1376C45.7774 39.1376 45.3364 39.4292 45.3364 39.9841C45.3364 40.3612 45.6067 40.7595 46.2825 40.7595C46.9583 40.7595 47.6555 40.2189 47.6555 39.1376H47.1789ZM36.0671 34.5918C35.939 34.5492 35.4339 34.3855 34.9715 34.3855C33.9756 34.3855 33.5701 34.9262 33.5701 35.4099C33.5701 36.0359 34.0325 36.3276 34.5732 36.4628L35.4268 36.6833C36.6291 37.0034 37.9594 37.5156 37.9594 39.2941C37.9594 40.9231 36.9136 42.0258 34.5874 42.0258C33.6911 42.0258 32.7591 41.9262 31.6636 41.5492V39.2799H33.2073V40.3896C33.4492 40.4536 34.1535 40.6315 34.7439 40.6315C35.6545 40.6315 36.0955 40.2544 36.0955 39.6C36.0955 39.0593 35.7896 38.6752 34.6941 38.3764L33.9614 38.1772C32.2825 37.7219 31.7134 36.9181 31.7134 35.5878C31.7134 34.2575 32.624 33.1406 34.9289 33.1406C35.9177 33.1406 36.9136 33.3114 37.6108 33.5959V35.6447H36.0671V34.599V34.5918Z" fill="#B7B7B7"/>
<path d="M62.0312 41.081C62.0312 40.953 62.0526 40.825 62.1024 40.7111C62.1522 40.5973 62.2162 40.4977 62.3016 40.4195C62.3869 40.3412 62.4865 40.2701 62.6004 40.2274C62.7142 40.1847 62.828 40.1562 62.956 40.1562C63.0841 40.1562 63.1979 40.1776 63.3117 40.2274C63.4256 40.2772 63.5252 40.3412 63.6105 40.4195C63.6959 40.5048 63.7599 40.5973 63.8097 40.7111C63.8595 40.825 63.8808 40.9459 63.8808 41.081C63.8808 41.2162 63.8595 41.3371 63.8097 41.451C63.7599 41.5648 63.6959 41.6644 63.6105 41.7426C63.5252 41.8209 63.4256 41.892 63.3117 41.9347C63.1979 41.9845 63.0841 42.0058 62.956 42.0058C62.828 42.0058 62.7071 41.9845 62.6004 41.9347C62.4865 41.8849 62.3869 41.8209 62.3016 41.7426C62.2162 41.6573 62.1522 41.5648 62.1024 41.451C62.0526 41.3371 62.0312 41.2162 62.0312 41.081ZM62.1949 41.081C62.1949 41.1949 62.2162 41.3016 62.2518 41.3941C62.2945 41.4936 62.3443 41.5719 62.4154 41.643C62.4865 41.7142 62.5648 41.7711 62.6573 41.8067C62.7497 41.8493 62.8493 41.8707 62.956 41.8707C63.0628 41.8707 63.1623 41.8493 63.2548 41.8067C63.3473 41.764 63.4256 41.7071 63.4967 41.643C63.5678 41.5719 63.6176 41.4865 63.6603 41.3941C63.703 41.2945 63.7172 41.1949 63.7172 41.081C63.7172 40.9672 63.6959 40.8676 63.6603 40.768C63.6176 40.6684 63.5678 40.5902 63.4967 40.5191C63.4256 40.4479 63.3473 40.391 63.2548 40.3483C63.1623 40.3056 63.0628 40.2843 62.956 40.2843C62.8493 40.2843 62.7497 40.3056 62.6573 40.3483C62.5648 40.391 62.4865 40.4479 62.4154 40.5191C62.3443 40.5902 62.2945 40.6756 62.2518 40.768C62.2091 40.8676 62.1949 40.9672 62.1949 41.081ZM62.6004 40.5333H63.013C63.2691 40.5333 63.39 40.64 63.39 40.8463C63.39 40.9459 63.3615 41.017 63.3046 41.0597C63.2477 41.1024 63.1837 41.1308 63.0983 41.138L63.4113 41.6146H63.2335L62.9418 41.1522H62.764V41.6146H62.6004V40.5333ZM62.764 41.017H62.9347C62.9703 41.017 63.0058 41.017 63.0414 41.017C63.077 41.017 63.1054 41.0099 63.1339 40.9957C63.1623 40.9815 63.1837 40.9672 63.1979 40.9388C63.2121 40.9174 63.2193 40.8819 63.2193 40.8392C63.2193 40.8036 63.2121 40.7752 63.1979 40.7538C63.1837 40.7325 63.1624 40.7182 63.141 40.704C63.1197 40.6898 63.0912 40.6827 63.0628 40.6827C63.0343 40.6827 63.0058 40.6827 62.9774 40.6827H62.764V41.0312V41.017Z" fill="#B7B7B7"/>
</g>
<defs>
<clipPath id="clip0_2029_2441">
<rect width="63.8821" height="42" fill="white"/>
</clipPath>
</defs>
</svg>
